<?xml version="1.0" standalone="no"?>
<!DOCTYPE svg PUBLIC "-//W3C//DTD SVG 20010904//EN"
 "http://www.w3.org/TR/2001/REC-SVG-20010904/DTD/svg10.dtd">
<svg version="1.0" xmlns="http://www.w3.org/2000/svg"
 width="425.000000pt" height="425.000000pt" viewBox="0 0 425.000000 425.000000"
 preserveAspectRatio="xMidYMid meet">
<metadata>
Created by potrace 1.14, written by Peter Selinger 2001-2017
</metadata>
<g transform="translate(0.000000,425.000000) scale(0.100000,-0.100000)"
fill="#000000" stroke="none">
<path d="M2312 3444 c-64 -17 -100 -35 -172 -87 -60 -43 -240 -220 -283 -278
-30 -39 -37 -70 -13 -50 16 14 164 13 172 0 3 -5 21 -9 40 -9 26 0 34 -4 34
-17 0 -15 2 -16 10 -3 8 12 10 12 10 -5 0 -17 2 -17 10 -5 9 14 15 7 11 -14
-1 -5 5 -4 13 4 14 11 20 7 17 -12 0 -4 7 -6 17 -5 24 1 133 -73 125 -86 -3
-6 -1 -7 5 -3 7 4 22 -2 34 -13 12 -12 25 -21 30 -21 4 0 15 -15 23 -32 8 -18
13 -24 10 -13 -7 24 112 -92 121 -118 3 -9 10 -14 16 -11 8 5 9 1 5 -10 -4
-10 -3 -15 3 -11 5 3 14 -4 20 -15 6 -12 20 -30 31 -41 11 -11 17 -25 13 -32
-4 -7 -4 -9 1 -5 9 9 35 -9 35 -24 0 -6 -7 -5 -15 2 -8 7 -15 9 -15 5 0 -4 -8
-1 -17 6 -16 13 -17 12 -4 -3 7 -10 17 -16 21 -13 5 3 11 1 15 -5 4 -6 10 -8
15 -5 4 3 14 -3 21 -12 12 -14 12 -16 -1 -9 -13 7 -13 6 0 -6 23 -20 72 -88
63 -88 -4 0 3 -7 15 -16 14 -9 21 -22 18 -31 -3 -8 -2 -11 4 -8 11 7 32 -29
22 -40 -4 -5 -2 -5 5 -1 14 8 36 -27 25 -39 -4 -5 -1 -5 6 -1 9 5 15 1 19 -13
3 -11 9 -18 14 -15 5 3 9 1 9 -3 0 -5 14 -24 30 -43 17 -19 34 -39 38 -45 4
-5 25 -29 46 -53 21 -23 32 -40 23 -37 -8 4 -18 2 -21 -3 -3 -5 0 -10 7 -9 6
0 21 -1 32 -2 17 -1 18 -3 5 -11 -12 -8 -12 -10 -1 -10 7 0 31 -17 52 -39 39
-38 51 -59 27 -45 -8 4 -10 3 -5 -2 5 -5 14 -9 20 -9 7 0 11 -9 9 -20 -2 -14
0 -16 6 -7 7 10 13 8 26 -7 10 -11 15 -24 11 -30 -3 -6 0 -8 8 -5 8 3 18 0 23
-7 5 -8 3 -10 -7 -4 -8 5 -11 4 -6 -1 5 -5 12 -9 15 -9 15 0 32 -17 27 -26 -4
-5 1 -9 10 -9 10 0 13 -5 9 -12 -4 -6 -3 -8 3 -5 5 4 19 -4 30 -16 23 -26 100
-96 128 -117 11 -8 -3 10 -30 40 -208 226 -390 537 -505 860 -28 80 -55 154
-60 165 -5 11 -39 97 -76 190 -79 202 -160 376 -203 439 -63 92 -136 123 -229
100z"/>
<path d="M1846 3013 c-6 -14 -5 -15 5 -6 7 7 10 15 7 18 -3 3 -9 -2 -12 -12z"/>
<path d="M1882 3014 c10 -10 20 -16 22 -13 3 3 -5 11 -17 18 -21 13 -21 12 -5
-5z"/>
<path d="M1950 3015 c0 -8 4 -15 8 -15 5 0 9 7 9 15 0 8 -4 15 -9 15 -4 0 -8
-7 -8 -15z"/>
<path d="M2007 3009 c7 -7 15 -10 18 -7 3 3 -2 9 -12 12 -14 6 -15 5 -6 -5z"/>
<path d="M1975 2991 c-6 -11 13 -26 22 -17 4 3 1 6 -6 6 -7 0 -9 5 -6 10 3 6
4 10 1 10 -3 0 -7 -4 -11 -9z"/>
<path d="M1820 2981 c0 -10 19 -25 25 -20 1 2 -3 10 -11 17 -8 7 -14 8 -14 3z"/>
<path d="M1870 2980 c-9 -6 -10 -10 -3 -10 6 0 15 5 18 10 8 12 4 12 -15 0z"/>
<path d="M1940 2981 c0 -10 19 -25 25 -20 1 2 -3 10 -11 17 -8 7 -14 8 -14 3z"/>
<path d="M2044 2974 c-18 -14 -18 -15 4 -4 12 6 22 13 22 15 0 8 -5 6 -26 -11z"/>
<path d="M2094 2965 c1 -8 6 -18 11 -22 4 -4 5 -3 2 4 -4 6 -2 13 5 15 8 3 6
6 -4 10 -10 4 -15 2 -14 -7z"/>
<path d="M1816 2948 c5 -7 2 -9 -8 -6 -8 4 -15 0 -15 -7 0 -10 5 -11 19 -4 16
9 17 29 2 29 -3 0 -2 -5 2 -12z"/>
<path d="M1995 2950 c6 -10 4 -12 -11 -6 -15 6 -17 5 -6 -5 9 -9 15 -10 23 -2
8 8 7 13 -2 18 -8 6 -10 4 -4 -5z"/>
<path d="M1851 2934 c0 -11 3 -14 6 -6 3 7 2 16 -1 19 -3 4 -6 -2 -5 -13z"/>
<path d="M2070 2946 c0 -2 8 -10 18 -17 15 -13 16 -12 3 4 -13 16 -21 21 -21
13z"/>
<path d="M2036 2924 c-11 -8 -16 -14 -10 -14 13 0 39 18 34 24 -3 2 -14 -2
-24 -10z"/>
<path d="M2122 2928 c-7 -7 -12 -17 -12 -22 0 -6 5 -3 11 7 6 9 14 15 20 12 5
-4 9 -1 9 4 0 14 -13 14 -28 -1z"/>
<path d="M2164 2928 c-4 -6 -8 -22 -10 -35 -2 -20 0 -22 12 -12 16 13 19 23 4
14 -13 -8 -13 1 0 26 11 20 6 27 -6 7z"/>
<path d="M1975 2910 c3 -5 8 -10 11 -10 2 0 4 5 4 10 0 6 -5 10 -11 10 -5 0
-7 -4 -4 -10z"/>
<path d="M2090 2891 c0 -11 4 -22 9 -25 4 -3 6 6 3 19 -5 30 -12 33 -12 6z"/>
<path d="M2195 2900 c-3 -6 1 -7 9 -4 18 7 21 14 7 14 -6 0 -13 -4 -16 -10z"/>
<path d="M2174 2868 c-5 -7 -2 -8 6 -3 9 6 10 2 5 -16 -4 -13 -6 -22 -3 -19
27 34 28 38 14 43 -9 4 -18 1 -22 -5z"/>
<path d="M2275 2859 c-4 -6 -5 -12 -2 -15 2 -3 7 2 10 11 7 17 1 20 -8 4z"/>
<path d="M2140 2856 c0 -2 8 -10 18 -17 15 -13 16 -12 3 4 -13 16 -21 21 -21
13z"/>
<path d="M2317 2829 c7 -7 15 -10 18 -7 3 3 -2 9 -12 12 -14 6 -15 5 -6 -5z"/>
<path d="M2275 2818 c25 -15 47 -19 39 -7 -3 5 -9 7 -14 4 -5 -3 -11 -1 -15 5
-3 5 -12 10 -18 10 -7 0 -3 -6 8 -12z"/>
<path d="M2358 2823 c7 -3 16 -2 19 1 4 3 -2 6 -13 5 -11 0 -14 -3 -6 -6z"/>
<path d="M2364 2789 c-3 -6 -2 -15 4 -21 6 -6 12 -6 17 3 6 8 4 10 -5 4 -10
-6 -12 -4 -7 8 7 19 2 23 -9 6z"/>
<path d="M2273 2775 c0 -8 4 -12 9 -9 4 3 8 0 8 -7 0 -7 2 -10 5 -7 7 7 -5 38
-14 38 -4 0 -8 -7 -8 -15z"/>
<path d="M2430 2760 c6 -11 15 -20 20 -20 6 0 2 9 -7 20 -10 11 -19 20 -21 20
-1 0 2 -9 8 -20z"/>
<path d="M2315 2759 c-4 -6 -4 -13 -1 -16 3 -4 6 -1 6 5 0 7 5 12 11 12 5 0 7
-5 3 -12 -4 -7 -3 -8 5 -4 12 8 6 26 -9 26 -5 0 -12 -5 -15 -11z"/>
<path d="M2370 2741 c0 -7 -4 -10 -9 -7 -5 3 -15 -2 -22 -12 -13 -15 -12 -16
4 -3 14 11 17 11 17 0 1 -9 4 -8 11 4 6 10 8 21 5 24 -3 4 -6 1 -6 -6z"/>
<path d="M2395 2730 c3 -5 8 -10 11 -10 2 0 4 5 4 10 0 6 -5 10 -11 10 -5 0
-7 -4 -4 -10z"/>
<path d="M2414 2708 c-5 -7 -2 -8 6 -3 9 6 10 2 5 -16 -4 -13 -6 -22 -3 -19
27 34 28 38 14 43 -9 4 -18 1 -22 -5z"/>
<path d="M2390 2695 c0 -5 5 -17 10 -25 5 -8 10 -10 10 -5 0 6 -5 17 -10 25
-5 8 -10 11 -10 5z"/>
<path d="M2480 2690 c-8 -5 -10 -10 -5 -10 6 0 17 5 25 10 8 5 11 10 5 10 -5
0 -17 -5 -25 -10z"/>
<path d="M2432 2641 c7 -9 13 -18 15 -20 1 -2 1 5 0 16 0 11 -7 20 -14 20 -10
0 -10 -4 -1 -16z"/>
<path d="M2483 2647 c-3 -5 0 -14 6 -20 9 -9 10 -7 5 7 -5 13 -4 17 4 12 6 -3
13 -3 16 2 3 5 -2 9 -10 9 -8 0 -17 -4 -21 -10z"/>
<path d="M2511 2617 c-13 -21 -12 -21 5 -5 10 10 16 20 13 22 -3 3 -11 -5 -18
-17z"/>
<path d="M2540 2623 c0 -7 5 -15 10 -18 6 -4 8 -11 5 -16 -4 -5 -1 -9 4 -9 15
0 13 11 -4 34 -8 11 -15 15 -15 9z"/>
<path d="M1659 2571 c-166 -65 -328 -274 -443 -571 -20 -52 -41 -103 -47 -113
-11 -20 -3 -41 12 -31 5 3 7 9 4 13 -7 12 86 91 107 91 10 0 18 5 18 11 0 6 7
8 16 5 8 -3 13 -2 10 3 -3 4 12 15 34 24 28 11 40 12 44 3 3 -7 7 -8 13 -1 11
13 30 18 75 19 21 1 38 5 38 9 0 5 4 6 9 3 5 -3 7 -16 5 -29 -4 -21 -4 -21 6
2 10 22 13 23 88 17 42 -3 81 -5 86 -6 4 0 6 -7 3 -15 -4 -8 -1 -17 5 -21 7
-4 8 -3 4 4 -4 7 -2 12 4 12 6 0 9 4 5 9 -7 12 26 7 54 -8 14 -8 21 -8 24 2 4
9 6 9 6 0 1 -7 8 -10 18 -6 10 4 14 2 10 -4 -4 -6 3 -9 16 -8 37 3 89 -14 80
-28 -4 -7 2 -5 12 3 17 13 18 13 13 -1 -4 -9 -1 -16 8 -16 7 0 11 4 8 9 -6 9
25 -1 42 -13 6 -5 13 -6 17 -3 3 3 16 0 29 -7 12 -7 26 -12 31 -11 4 1 7 -2 7
-8 0 -6 3 -9 8 -8 4 1 22 -2 40 -6 34 -8 42 -23 17 -32 -8 -4 -15 -11 -15 -17
0 -5 8 -3 18 6 10 10 22 14 27 10 4 -5 5 -2 0 5 -6 12 -3 12 16 2 13 -7 28
-19 32 -26 4 -8 13 -14 20 -14 7 0 6 4 -3 10 -34 22 4 8 64 -24 35 -19 67 -32
70 -28 3 3 6 0 6 -7 0 -7 5 -9 10 -6 6 3 10 1 10 -5 0 -6 5 -8 10 -5 6 3 10 1
10 -5 0 -6 4 -9 9 -6 4 3 23 -2 42 -12 19 -9 53 -23 76 -31 32 -10 42 -19 40
-32 -2 -10 -6 -22 -10 -25 -4 -4 -7 -12 -7 -18 1 -13 24 24 25 39 1 12 36 8
50 -6 5 -5 17 -9 28 -9 11 0 15 -4 11 -12 -5 -8 -2 -9 9 -5 9 3 23 0 31 -8 7
-8 16 -12 19 -9 3 3 26 -3 51 -15 25 -11 46 -17 46 -14 0 3 6 0 13 -6 8 -6 17
-8 20 -4 4 3 7 -1 7 -10 0 -9 5 -17 11 -17 5 0 7 5 4 10 -5 9 29 -2 110 -35
11 -4 29 -10 40 -12 35 -6 46 -13 40 -23 -3 -6 0 -7 9 -4 8 3 32 0 53 -7 21
-7 41 -12 46 -11 4 1 7 -2 7 -6 0 -4 12 -9 26 -10 35 -3 44 -10 38 -30 -5 -16
-5 -16 6 0 8 13 16 15 34 8 13 -5 27 -6 30 -3 3 4 7 1 7 -5 3 -26 4 -31 11
-38 4 -3 6 3 3 14 -3 20 -3 20 48 5 29 -8 55 -17 58 -19 3 -2 21 -6 40 -9 19
-3 38 -10 43 -15 5 -5 15 -6 24 -3 9 4 13 2 9 -4 -3 -5 0 -10 8 -10 8 0 12 4
10 8 -3 4 4 5 15 2 11 -3 17 -9 14 -14 -3 -5 2 -6 11 -3 8 4 21 2 28 -3 6 -5
22 -8 35 -7 12 0 22 -2 22 -5 0 -4 8 -7 18 -7 9 0 37 -4 62 -8 33 -5 19 3 -50
27 -372 131 -758 338 -1065 571 -44 33 -127 106 -185 162 -201 195 -405 351
-565 434 -156 80 -238 96 -326 61z"/>
<path d="M2517 2579 c7 -7 15 -10 18 -7 3 3 -2 9 -12 12 -14 6 -15 5 -6 -5z"/>
<path d="M2535 2541 c-3 -5 -2 -12 3 -15 5 -3 9 1 9 9 0 17 -3 19 -12 6z"/>
<path d="M2595 2511 c6 -11 4 -13 -8 -8 -23 9 -21 0 2 -13 15 -7 19 -7 17 5
-1 8 -6 18 -11 22 -4 5 -5 2 0 -6z"/>
<path d="M2635 2471 c-9 -15 15 -25 28 -12 9 9 7 10 -7 5 -13 -5 -17 -4 -12 4
4 7 5 12 2 12 -3 0 -7 -4 -11 -9z"/>
<path d="M2680 2441 c0 -6 4 -13 10 -16 6 -3 7 1 4 9 -7 18 -14 21 -14 7z"/>
<path d="M2660 2410 c8 -5 20 -10 25 -10 6 0 3 5 -5 10 -8 5 -19 10 -25 10 -5
0 -3 -5 5 -10z"/>
<path d="M2707 2376 c-4 -10 -1 -13 8 -9 8 3 12 9 9 14 -7 12 -11 11 -17 -5z"/>
<path d="M2724 2345 c-3 -8 -4 -20 -1 -27 3 -7 6 -3 6 10 1 15 5 21 13 16 7
-4 8 -3 4 4 -10 16 -15 15 -22 -3z"/>
<path d="M2746 2313 c-6 -14 -5 -15 5 -6 7 7 10 15 7 18 -3 3 -9 -2 -12 -12z"/>
<path d="M2765 2290 c-3 -5 -1 -10 4 -10 6 0 11 5 11 10 0 6 -2 10 -4 10 -3 0
-8 -4 -11 -10z"/>
<path d="M2793 2265 c0 -8 4 -12 9 -9 4 3 8 9 8 15 0 5 -4 9 -8 9 -5 0 -9 -7
-9 -15z"/>
<path d="M2813 2220 c-1 -11 2 -22 6 -24 4 -3 7 4 6 14 -2 27 -10 33 -12 10z"/>
<path d="M2850 2210 c0 -5 5 -10 11 -10 5 0 7 5 4 10 -3 6 -8 10 -11 10 -2 0
-4 -4 -4 -10z"/>
<path d="M2868 2183 c6 -2 10 -9 7 -14 -4 -5 1 -6 10 -2 13 5 14 7 3 14 -7 5
-17 8 -23 8 -5 0 -4 -3 3 -6z"/>
<path d="M2900 2116 c0 -2 7 -6 15 -10 8 -3 15 -1 15 4 0 6 -7 10 -15 10 -8 0
-15 -2 -15 -4z"/>
<path d="M2956 2068 c3 -4 11 -5 19 -1 21 7 19 12 -4 10 -11 0 -18 -5 -15 -9z"/>
<path d="M1596 2004 c-5 -14 -4 -15 9 -4 17 14 19 20 6 20 -5 0 -12 -7 -15
-16z"/>
<path d="M1656 2012 c-3 -5 1 -9 9 -9 8 0 15 4 15 9 0 4 -4 8 -9 8 -6 0 -12
-4 -15 -8z"/>
<path d="M1435 1991 c-9 -15 15 -25 28 -12 9 9 7 10 -7 5 -13 -5 -17 -4 -12 4
4 7 5 12 2 12 -3 0 -7 -4 -11 -9z"/>
<path d="M1510 1991 c0 -6 4 -13 10 -16 6 -3 7 1 4 9 -7 18 -14 21 -14 7z"/>
<path d="M1633 1985 c0 -8 4 -12 9 -9 5 3 6 10 3 15 -9 13 -12 11 -12 -6z"/>
<path d="M1390 1980 c-8 -5 -12 -11 -10 -14 3 -2 14 2 24 10 22 15 10 19 -14
4z"/>
<path d="M1722 1974 c10 -10 20 -16 22 -13 3 3 -5 11 -17 18 -21 13 -21 12 -5
-5z"/>
<path d="M1484 1969 c-3 -6 -1 -16 5 -22 9 -9 10 -7 5 7 -6 15 -4 17 6 11 9
-5 11 -4 6 3 -9 15 -13 15 -22 1z"/>
<path d="M1547 1969 c7 -7 15 -10 18 -7 3 3 -2 9 -12 12 -14 6 -15 5 -6 -5z"/>
<path d="M1585 1969 c-4 -6 -5 -12 -2 -15 2 -3 7 2 10 11 7 17 1 20 -8 4z"/>
<path d="M1681 1971 c-8 -5 -9 -11 -3 -15 5 -3 12 1 16 9 6 17 6 18 -13 6z"/>
<path d="M1770 1970 c0 -5 5 -10 10 -10 6 0 10 5 10 10 0 6 -4 10 -10 10 -5 0
-10 -4 -10 -10z"/>
<path d="M1826 1969 c3 -5 9 -7 14 -4 4 3 11 0 13 -5 3 -6 4 -5 3 1 -1 7 -10
13 -19 15 -9 1 -15 -2 -11 -7z"/>
<path d="M1355 1950 c6 -30 16 -40 12 -12 -2 12 -6 24 -10 28 -3 4 -4 -4 -2
-16z"/>
<path d="M1910 1960 c-11 -7 -11 -10 -2 -10 8 0 10 -5 6 -12 -4 -7 -3 -9 1 -5
7 6 17 37 12 37 -1 0 -9 -5 -17 -10z"/>
<path d="M3075 1961 c-3 -5 -2 -12 3 -15 5 -3 9 1 9 9 0 17 -3 19 -12 6z"/>
<path d="M1645 1950 c-8 -13 3 -30 18 -29 9 0 9 2 0 6 -7 2 -13 9 -13 14 0 6
5 7 12 3 7 -4 8 -3 4 4 -9 15 -13 15 -21 2z"/>
<path d="M1317 1939 c7 -7 15 -10 18 -7 3 3 -2 9 -12 12 -14 6 -15 5 -6 -5z"/>
<path d="M1715 1940 c-3 -5 -3 -10 2 -10 4 0 1 -5 -7 -11 -10 -7 -11 -9 -2 -7
8 2 13 7 12 12 -1 5 4 13 12 17 9 6 9 9 1 9 -6 0 -15 -4 -18 -10z"/>
<path d="M1810 1940 c-8 -5 -12 -12 -9 -15 4 -3 12 1 19 10 14 17 11 19 -10 5z"/>
<path d="M1268 1933 c7 -3 16 -2 19 1 4 3 -2 6 -13 5 -11 0 -14 -3 -6 -6z"/>
<path d="M1451 1937 c2 -1 13 -9 24 -17 19 -14 19 -14 6 3 -7 9 -18 17 -24 17
-6 0 -8 -1 -6 -3z"/>
<path d="M1564 1925 c-18 -15 -18 -15 0 -8 15 5 17 3 11 -8 -5 -8 -4 -11 0 -6
8 7 17 37 11 37 -1 0 -11 -7 -22 -15z"/>
<path d="M1844 1929 c-4 -7 -3 -9 4 -5 5 3 13 0 15 -6 4 -9 6 -10 6 -1 1 17
-16 25 -25 12z"/>
<path d="M1950 1929 c0 -5 5 -7 10 -4 6 3 10 8 10 11 0 2 -4 4 -10 4 -5 0 -10
-5 -10 -11z"/>
<path d="M1760 1926 c0 -2 7 -7 16 -10 8 -3 12 -2 9 4 -6 10 -25 14 -25 6z"/>
<path d="M2070 1921 c0 -7 -5 -9 -12 -5 -7 5 -8 3 -3 -5 5 -9 10 -10 18 -2 6
6 8 14 4 18 -4 3 -7 1 -7 -6z"/>
<path d="M1310 1910 c0 -5 5 -10 10 -10 6 0 10 5 10 10 0 6 -4 10 -10 10 -5 0
-10 -4 -10 -10z"/>
<path d="M1433 1904 c0 -8 4 -14 9 -14 4 0 8 5 8 11 0 5 6 7 13 3 6 -4 8 -3 4
1 -13 15 -34 14 -34 -1z"/>
<path d="M1615 1911 c-9 -15 13 -23 32 -11 15 9 14 10 -6 4 -16 -4 -21 -3 -17
5 4 6 5 11 2 11 -3 0 -7 -4 -11 -9z"/>
<path d="M1868 1898 c-10 -10 -14 -18 -9 -18 10 0 36 29 30 34 -2 1 -12 -6
-21 -16z"/>
<path d="M2030 1911 c0 -10 29 -36 34 -30 1 2 -6 12 -16 22 -10 9 -18 13 -18
8z"/>
<path d="M1410 1896 c0 -8 4 -17 9 -20 5 -4 7 3 4 14 -6 23 -13 26 -13 6z"/>
<path d="M1796 1902 c-2 -4 -1 -14 4 -22 7 -11 9 -9 7 8 -1 24 -3 26 -11 14z"/>
<path d="M2005 1893 c-11 -25 -15 -46 -7 -38 4 4 7 10 7 13 0 4 4 13 9 20 4 7
6 15 3 18 -2 3 -8 -3 -12 -13z"/>
<path d="M1220 1890 c0 -5 7 -7 15 -4 8 4 15 8 15 10 0 2 -7 4 -15 4 -8 0 -15
-4 -15 -10z"/>
<path d="M1277 1878 c14 -15 33 -16 33 -2 0 3 -5 2 -12 -2 -7 -5 -9 -2 -6 7 4
10 -1 15 -13 15 -17 0 -17 -2 -2 -18z"/>
<path d="M1335 1889 c-6 -8 -4 -10 5 -4 10 6 12 4 6 -11 -6 -15 -5 -17 5 -6 9
9 10 15 2 23 -8 8 -13 7 -18 -2z"/>
<path d="M1490 1889 c0 -5 5 -7 10 -4 6 3 10 8 10 11 0 2 -4 4 -10 4 -5 0 -10
-5 -10 -11z"/>
<path d="M1826 1887 c3 -10 9 -15 12 -12 3 3 0 11 -7 18 -10 9 -11 8 -5 -6z"/>
<path d="M1894 1888 c-5 -7 -3 -8 6 -3 10 6 12 4 7 -8 -4 -11 -2 -14 9 -10 11
4 12 9 3 19 -14 17 -16 17 -25 2z"/>
<path d="M1956 1884 c-11 -8 -16 -14 -10 -14 13 0 39 18 34 24 -3 2 -14 -2
-24 -10z"/>
<path d="M2107 1889 c7 -7 15 -10 18 -7 3 3 -2 9 -12 12 -14 6 -15 5 -6 -5z"/>
<path d="M1373 1875 c0 -8 4 -12 9 -9 5 3 6 10 3 15 -9 13 -12 11 -12 -6z"/>
<path d="M2026 1857 c-16 -12 -16 -14 -3 -14 9 0 18 6 21 14 3 7 4 13 3 13 -2
0 -11 -6 -21 -13z"/>
<path d="M2149 1853 c-13 -16 -12 -17 4 -4 9 7 17 15 17 17 0 8 -8 3 -21 -13z"/>
<path d="M1246 1848 c3 -5 10 -6 15 -3 13 9 11 12 -6 12 -8 0 -12 -4 -9 -9z"/>
<path d="M1935 1850 c3 -5 8 -10 11 -10 2 0 4 5 4 10 0 6 -5 10 -11 10 -5 0
-7 -4 -4 -10z"/>
<path d="M2079 1858 c-6 -21 -5 -38 1 -38 5 0 8 9 7 20 -1 17 -5 26 -8 18z"/>
<path d="M1195 1840 c-4 -6 1 -7 11 -3 13 5 15 3 9 -7 -5 -9 -4 -11 4 -6 6 4
9 12 6 17 -8 12 -22 12 -30 -1z"/>
<path d="M1260 1830 c-9 -6 -10 -10 -3 -10 6 0 15 5 18 10 8 12 4 12 -15 0z"/>
<path d="M2242 1831 c-10 -6 -10 -10 3 -21 13 -11 14 -10 9 5 -6 14 -4 16 6
10 9 -5 11 -4 6 3 -8 14 -7 14 -24 3z"/>
<path d="M2310 1821 c0 -7 -5 -9 -12 -5 -7 5 -8 3 -3 -5 5 -9 10 -10 18 -2 6
6 8 14 4 18 -4 3 -7 1 -7 -6z"/>
<path d="M1170 1812 c0 -5 7 -9 15 -9 8 0 12 4 9 9 -3 4 -9 8 -15 8 -5 0 -9
-4 -9 -8z"/>
<path d="M2094 1808 c-4 -7 -4 -10 1 -6 4 4 15 2 24 -5 14 -11 14 -10 2 6 -16
20 -18 21 -27 5z"/>
<path d="M2204 1809 c-3 -6 -1 -16 5 -22 9 -9 10 -7 5 7 -6 15 -4 17 6 11 9
-5 11 -4 6 3 -9 15 -13 15 -22 1z"/>
<path d="M1139 1798 c-5 -18 -6 -38 -1 -34 7 8 12 36 6 36 -2 0 -4 -1 -5 -2z"/>
<path d="M2270 1791 c0 -6 4 -12 8 -15 5 -3 9 1 9 9 0 8 -4 15 -9 15 -4 0 -8
-4 -8 -9z"/>
<path d="M2341 1774 c0 -11 3 -14 6 -6 3 7 2 16 -1 19 -3 4 -6 -2 -5 -13z"/>
<path d="M2366 1773 c-8 -20 9 -40 19 -22 6 8 4 10 -5 4 -9 -5 -10 -2 -5 14 8
25 0 29 -9 4z"/>
<path d="M2224 1769 c-4 -7 -3 -9 4 -5 5 3 13 0 15 -6 4 -9 6 -10 6 -1 1 17
-16 25 -25 12z"/>
<path d="M2276 1743 c-6 -14 -5 -15 5 -6 7 7 10 15 7 18 -3 3 -9 -2 -12 -12z"/>
<path d="M2427 1743 c5 -12 3 -14 -8 -8 -8 5 -11 4 -6 0 4 -5 14 -10 22 -11
12 -2 12 2 5 17 -13 23 -22 25 -13 2z"/>
<path d="M2300 1741 c0 -6 4 -13 10 -16 6 -3 7 1 4 9 -7 18 -14 21 -14 7z"/>
<path d="M2390 1735 c0 -5 5 -17 10 -25 5 -8 10 -10 10 -5 0 6 -5 17 -10 25
-5 8 -10 11 -10 5z"/>
<path d="M2490 1730 c0 -5 5 -10 10 -10 6 0 10 5 10 10 0 6 -4 10 -10 10 -5 0
-10 -4 -10 -10z"/>
<path d="M2421 1694 c0 -11 3 -14 6 -6 3 7 2 16 -1 19 -3 4 -6 -2 -5 -13z"/>
<path d="M2473 1703 c-7 -2 -13 -12 -12 -21 0 -11 2 -12 6 -4 2 6 8 10 12 8 4
-3 8 1 8 9 0 8 -1 15 -1 14 -1 0 -7 -3 -13 -6z"/>
<path d="M2540 1699 c0 -5 -6 -7 -12 -3 -7 4 -9 3 -5 -1 13 -15 36 -14 30 1
-6 17 -13 18 -13 3z"/>
<path d="M2582 1697 c10 -8 15 -17 11 -21 -4 -4 1 -4 10 0 20 7 20 7 -13 23
-22 11 -23 10 -8 -2z"/>
<path d="M2498 1658 c5 -5 16 -8 23 -6 8 3 3 7 -10 11 -17 4 -21 3 -13 -5z"/>
<path d="M2552 1656 c7 -8 15 -12 17 -11 5 6 -10 25 -20 25 -5 0 -4 -6 3 -14z"/>
<path d="M1488 1655 c-2 -1 -30 -5 -63 -9 -81 -8 -99 -12 -190 -41 -198 -65
-416 -208 -613 -404 -82 -82 -224 -243 -218 -248 1 -2 29 6 61 17 61 21 75 19
76 -8 0 -11 2 -12 6 -4 2 6 9 10 13 7 5 -3 12 -1 15 5 4 6 3 10 -2 9 -18 -3
-33 1 -33 10 0 7 17 13 79 27 8 1 26 6 39 9 13 3 30 1 37 -5 10 -9 19 -9 32 0
16 10 15 10 -4 5 -14 -4 -23 -2 -23 4 0 10 38 16 88 13 12 0 22 2 22 6 0 12
81 13 95 2 10 -8 15 -8 21 1 4 8 3 9 -4 5 -7 -4 -12 -3 -12 3 0 5 24 9 53 9
29 -1 59 2 67 7 10 6 12 4 7 -8 -3 -9 -1 -19 5 -23 6 -4 8 -3 4 4 -9 16 12 25
61 28 40 1 48 -4 44 -29 -1 -5 3 -6 9 -2 5 3 10 1 10 -6 0 -7 3 -9 6 -6 4 4 1
13 -6 22 -7 8 -9 15 -4 16 5 0 19 2 32 3 12 2 22 0 22 -4 0 -3 16 -4 35 -2 34
4 43 -4 28 -24 -5 -5 -1 -2 7 7 9 9 24 14 35 12 11 -2 37 -4 58 -4 29 0 37 -4
33 -14 -3 -9 0 -12 9 -8 8 3 13 9 10 13 -3 4 12 4 33 0 20 -5 64 -14 97 -20
33 -6 89 -18 125 -27 85 -19 94 -21 149 -28 25 -4 57 -9 71 -11 14 -3 42 -5
63 -6 20 0 40 -4 43 -9 3 -5 11 -6 17 -2 17 10 79 4 96 -10 8 -7 12 -7 9 -2
-4 7 8 11 33 10 38 0 49 -8 29 -20 -5 -3 -10 -12 -10 -18 0 -7 5 -4 11 6 6 9
14 15 19 12 5 -3 11 -1 15 5 9 14 88 13 103 -2 9 -9 13 -7 18 6 5 14 9 15 15
4 5 -7 9 -8 9 -3 0 15 100 12 130 -3 22 -12 23 -12 7 1 -16 14 -14 15 30 16
181 4 243 7 243 12 0 3 10 5 23 4 12 -1 34 2 49 6 18 5 29 3 32 -4 3 -8 7 -9
13 -2 4 6 13 11 20 12 18 4 114 14 146 16 15 1 27 5 27 9 0 14 46 13 58 -2 9
-11 12 -12 10 -1 -3 14 25 23 79 25 17 0 29 4 26 9 -2 4 3 8 11 8 9 1 22 2 29
3 6 1 18 -2 25 -8 9 -7 12 -5 10 5 -2 8 4 13 15 13 9 -1 17 3 17 8 0 6 8 4 17
-3 9 -8 14 -9 10 -3 -4 7 0 15 9 18 10 4 13 2 8 -7 -6 -9 -3 -8 8 1 9 7 27 14
40 16 13 1 34 8 48 16 14 7 27 13 30 13 6 -1 4 -1 108 37 93 33 218 90 245
111 15 12 -6 14 -150 14 -151 1 -325 9 -423 21 -76 9 -206 25 -220 28 -8 1
-37 6 -65 10 -48 7 -204 35 -235 41 -8 2 -49 11 -90 20 -147 31 -341 85 -442
124 -169 64 -334 105 -505 126 -55 7 -279 15 -285 10z"/>
<path d="M2660 1649 c0 -9 31 -21 38 -14 3 3 0 5 -7 5 -7 0 -10 4 -7 8 3 5 -1
9 -9 9 -8 0 -15 -4 -15 -8z"/>
<path d="M2580 1636 c0 -2 7 -6 15 -10 8 -3 15 -1 15 4 0 6 -7 10 -15 10 -8 0
-15 -2 -15 -4z"/>
<path d="M2717 1629 c7 -7 15 -10 18 -7 3 3 -2 9 -12 12 -14 6 -15 5 -6 -5z"/>
<path d="M2753 1615 c0 -8 4 -15 9 -15 4 0 8 4 8 9 0 6 -4 12 -8 15 -5 3 -9
-1 -9 -9z"/>
<path d="M2676 1603 c-6 -14 -5 -15 5 -6 7 7 10 15 7 18 -3 3 -9 -2 -12 -12z"/>
<path d="M2790 1600 c-11 -7 -11 -10 -2 -10 7 0 10 -5 7 -10 -4 -6 -11 -7 -17
-4 -7 4 -8 2 -4 -4 5 -9 12 -8 27 1 10 6 15 13 9 15 -6 2 -8 8 -4 13 7 11 3
11 -16 -1z"/>
<path d="M2718 1593 c7 -3 16 -2 19 1 4 3 -2 6 -13 5 -11 0 -14 -3 -6 -6z"/>
<path d="M2886 1573 c-6 -14 -5 -15 5 -6 7 7 10 15 7 18 -3 3 -9 -2 -12 -12z"/>
<path d="M2834 1564 c1 -8 6 -17 11 -21 4 -5 5 -2 0 6 -6 11 -4 13 8 8 10 -4
14 -2 11 7 -6 17 -32 16 -30 0z"/>
<path d="M2978 1533 c4 -19 2 -24 -8 -18 -9 5 -11 4 -6 -4 4 -6 12 -9 17 -6
11 8 12 42 0 49 -4 3 -6 -6 -3 -21z"/>
<path d="M2911 1541 c-8 -5 -9 -11 -3 -15 5 -3 12 1 16 9 6 17 6 18 -13 6z"/>
<path d="M3011 1524 c0 -11 3 -14 6 -6 3 7 2 16 -1 19 -3 4 -6 -2 -5 -13z"/>
<path d="M3030 1511 c0 -5 5 -13 10 -16 6 -3 10 -2 10 4 0 5 -4 13 -10 16 -5
3 -10 2 -10 -4z"/>
<path d="M3093 1495 c-3 -9 -3 -18 -1 -21 3 -3 8 4 11 16 6 23 -1 27 -10 5z"/>
<path d="M3130 1470 c0 -5 5 -10 11 -10 5 0 7 5 4 10 -3 6 -8 10 -11 10 -2 0
-4 -4 -4 -10z"/>
<path d="M3230 1451 c0 -6 4 -13 10 -16 6 -3 7 1 4 9 -7 18 -14 21 -14 7z"/>
<path d="M3330 1426 c0 -3 9 -10 19 -16 15 -7 22 -7 27 2 4 7 4 10 -1 6 -4 -4
-16 -3 -26 3 -11 5 -19 7 -19 5z"/>
<path d="M3455 1390 c3 -5 8 -10 11 -10 2 0 4 5 4 10 0 6 -5 10 -11 10 -5 0
-7 -4 -4 -10z"/>
<path d="M4239 1083 c0 -5 -3 -20 -5 -35 -3 -16 0 -28 6 -28 5 0 10 16 10 35
0 19 -2 35 -5 35 -3 0 -5 -3 -6 -7z"/>
<path d="M1110 1061 c0 -8 -7 -11 -17 -6 -15 5 -16 4 -5 -6 9 -10 15 -10 24
-1 6 6 9 15 5 19 -4 3 -7 1 -7 -6z"/>
<path d="M944 1044 c-18 -14 -18 -15 4 -4 12 6 22 13 22 15 0 8 -5 6 -26 -11z"/>
<path d="M1237 1046 c-4 -10 -1 -13 9 -9 15 6 19 23 5 23 -5 0 -11 -7 -14 -14z"/>
<path d="M995 1040 c-4 -6 1 -7 11 -3 13 5 15 3 9 -7 -5 -9 -4 -11 4 -6 6 4 9
12 6 17 -8 12 -22 12 -30 -1z"/>
<path d="M835 1030 c6 -10 4 -12 -11 -6 -15 6 -17 5 -6 -5 9 -9 15 -10 23 -2
8 8 7 13 -2 18 -8 6 -10 4 -4 -5z"/>
<path d="M1056 1032 c-12 -19 9 -30 29 -15 19 15 19 15 -4 8 -16 -5 -21 -4
-17 4 4 6 5 11 2 11 -3 0 -7 -4 -10 -8z"/>
<path d="M1135 1030 c6 -10 4 -12 -7 -7 -16 6 -20 -17 -5 -28 4 -3 5 -2 2 2
-3 3 3 11 12 18 13 9 13 14 3 20 -9 6 -11 4 -5 -5z"/>
<path d="M1313 1025 c0 -8 4 -12 9 -9 5 3 6 10 3 15 -9 13 -12 11 -12 -6z"/>
<path d="M868 1023 c6 -2 10 -9 7 -13 -3 -5 0 -12 6 -16 8 -4 9 -3 5 4 -4 7
-1 12 6 12 9 0 9 3 -2 10 -8 5 -19 9 -25 9 -5 0 -4 -3 3 -6z"/>
<path d="M916 1017 c3 -10 9 -15 12 -12 3 3 0 11 -7 18 -10 9 -11 8 -5 -6z"/>
<path d="M1402 1014 c10 -10 20 -16 22 -13 3 3 -5 11 -17 18 -21 13 -21 12 -5
-5z"/>
<path d="M1510 1015 c-7 -9 -11 -17 -9 -20 3 -2 10 5 17 15 14 24 10 26 -8 5z"/>
<path d="M756 1004 c-11 -8 -16 -14 -10 -14 13 0 39 18 34 24 -3 2 -14 -2 -24
-10z"/>
<path d="M970 1009 c0 -5 4 -8 9 -4 6 3 14 -3 20 -12 6 -10 11 -13 11 -7 0 12
-20 34 -32 34 -4 0 -8 -5 -8 -11z"/>
<path d="M1166 1012 c-3 -5 1 -9 9 -9 8 0 12 4 9 9 -3 4 -7 8 -9 8 -2 0 -6 -4
-9 -8z"/>
<path d="M1231 1003 c7 -12 15 -20 18 -17 3 2 -3 12 -13 22 -17 16 -18 16 -5
-5z"/>
<path d="M1265 1009 c-4 -6 -5 -12 -2 -15 2 -3 7 2 10 11 7 17 1 20 -8 4z"/>
<path d="M1361 1011 c-8 -5 -9 -11 -3 -15 5 -3 12 1 16 9 6 17 6 18 -13 6z"/>
<path d="M1468 1002 c9 -10 19 -17 21 -16 6 5 -20 34 -30 34 -5 0 -1 -8 9 -18z"/>
<path d="M1540 1009 c0 -5 5 -7 10 -4 6 3 10 8 10 11 0 2 -4 4 -10 4 -5 0 -10
-5 -10 -11z"/>
<path d="M615 1001 c-3 -5 0 -13 6 -17 7 -4 9 -3 5 4 -3 5 0 13 6 15 9 4 10 6
1 6 -6 1 -14 -3 -18 -8z"/>
<path d="M1630 1000 c0 -5 5 -10 11 -10 5 0 7 5 4 10 -3 6 -8 10 -11 10 -2 0
-4 -4 -4 -10z"/>
<path d="M590 991 c0 -10 29 -36 34 -30 1 2 -6 12 -16 22 -10 9 -18 13 -18 8z"/>
<path d="M794 970 c-1 -16 1 -30 5 -30 3 0 7 14 7 30 1 17 -1 30 -5 30 -3 0
-7 -13 -7 -30z"/>
<path d="M843 985 c-3 -9 -3 -19 1 -22 3 -4 6 1 6 11 0 10 5 14 12 10 7 -4 8
-3 4 4 -10 16 -15 15 -23 -3z"/>
<path d="M1200 985 c-7 -9 -8 -15 -2 -15 5 0 12 7 16 15 3 8 4 15 2 15 -2 0
-9 -7 -16 -15z"/>
<path d="M1324 985 c-4 -8 -11 -12 -17 -8 -6 4 -7 1 -2 -7 6 -10 11 -10 20 3
7 9 16 13 20 9 5 -4 5 -1 1 6 -9 16 -15 15 -22 -3z"/>
<path d="M1442 991 c-10 -6 -10 -10 3 -21 13 -11 14 -10 9 5 -6 14 -4 16 6 10
9 -5 11 -4 6 3 -8 14 -7 14 -24 3z"/>
<path d="M915 980 c-3 -6 1 -7 9 -4 18 7 21 14 7 14 -6 0 -13 -4 -16 -10z"/>
<path d="M950 986 c0 -2 7 -9 15 -16 13 -11 14 -10 9 4 -5 14 -24 23 -24 12z"/>
<path d="M1016 973 c-6 -14 -5 -15 5 -6 7 7 10 15 7 18 -3 3 -9 -2 -12 -12z"/>
<path d="M1395 981 c-3 -5 0 -13 6 -17 7 -4 9 -3 5 4 -3 5 0 13 6 15 9 4 10 6
1 6 -6 1 -14 -3 -18 -8z"/>
<path d="M690 972 c0 -5 7 -9 15 -9 8 0 12 4 9 9 -3 4 -9 8 -15 8 -5 0 -9 -4
-9 -8z"/>
<path d="M747 961 c-4 -17 -3 -21 5 -13 5 5 8 16 6 23 -3 8 -7 3 -11 -10z"/>
<path d="M1130 976 c0 -2 7 -7 16 -10 8 -3 12 -2 9 4 -6 10 -25 14 -25 6z"/>
<path d="M1496 963 c-4 -11 -1 -11 14 -3 24 13 25 17 5 17 -8 0 -16 -6 -19
-14z"/>
<path d="M1556 965 c-9 -26 -7 -32 5 -12 6 10 9 21 6 23 -2 3 -7 -2 -11 -11z"/>
<path d="M1636 965 c-11 -8 -15 -15 -9 -15 7 0 15 5 18 10 4 6 11 8 16 5 5 -4
9 -1 9 4 0 15 -11 13 -34 -4z"/>
<path d="M1715 969 c-4 -6 -4 -13 -1 -16 3 -4 6 -1 6 6 0 7 5 9 10 6 6 -3 10
-1 10 4 0 14 -17 14 -25 0z"/>
<path d="M2953 955 c0 -8 4 -12 9 -9 5 3 6 10 3 15 -9 13 -12 11 -12 -6z"/>
<path d="M516 945 c-3 -9 -10 -13 -16 -10 -5 3 -10 1 -10 -4 0 -6 4 -11 9 -11
12 0 35 29 29 36 -3 3 -8 -2 -12 -11z"/>
<path d="M1580 950 c-8 -5 -10 -10 -5 -10 6 0 17 5 25 10 8 5 11 10 5 10 -5 0
-17 -5 -25 -10z"/>
<path d="M1750 953 c0 -5 10 -19 21 -33 l20 -25 -12 25 c-7 14 -12 28 -11 33
1 4 -2 7 -8 7 -5 0 -10 -3 -10 -7z"/>
<path d="M590 940 c-8 -5 -12 -11 -10 -14 3 -2 14 2 24 10 22 15 10 19 -14 4z"/>
<path d="M682 930 c7 -10 14 -18 15 -16 6 6 -9 36 -18 36 -5 0 -4 -9 3 -20z"/>
<path d="M1673 935 c0 -8 4 -12 9 -9 5 3 6 10 3 15 -9 13 -12 11 -12 -6z"/>
<path d="M1989 933 c-13 -16 -12 -17 4 -4 16 13 21 21 13 21 -2 0 -10 -8 -17
-17z"/>
<path d="M2642 930 c-9 -15 -9 -21 1 -26 6 -4 9 -4 5 1 -4 4 -3 14 4 22 6 7 9
15 7 18 -3 2 -10 -4 -17 -15z"/>
<path d="M2715 939 c-11 -16 -1 -19 13 -3 7 8 8 14 3 14 -5 0 -13 -5 -16 -11z"/>
<path d="M551 923 c7 -12 15 -20 18 -17 3 2 -3 12 -13 22 -17 16 -18 16 -5 -5z"/>
<path d="M716 932 c-3 -5 1 -9 9 -9 8 0 12 4 9 9 -3 4 -7 8 -9 8 -2 0 -6 -4
-9 -8z"/>
<path d="M1810 928 c0 -4 4 -8 9 -8 6 0 12 4 15 8 3 5 -1 9 -9 9 -8 0 -15 -4
-15 -9z"/>
<path d="M1870 930 c0 -5 5 -10 11 -10 5 0 7 5 4 10 -3 6 -8 10 -11 10 -2 0
-4 -4 -4 -10z"/>
<path d="M1930 928 c0 -6 3 -8 7 -5 3 4 13 1 22 -6 14 -11 14 -10 2 6 -15 20
-31 22 -31 5z"/>
<path d="M2040 930 c-8 -5 -10 -10 -5 -10 6 0 17 5 25 10 8 5 11 10 5 10 -5 0
-17 -5 -25 -10z"/>
<path d="M2090 930 c0 -5 5 -10 10 -10 6 0 10 5 10 10 0 6 -4 10 -10 10 -5 0
-10 -4 -10 -10z"/>
<path d="M2430 936 c0 -2 7 -7 16 -10 8 -3 12 -2 9 4 -6 10 -25 14 -25 6z"/>
<path d="M2546 932 c-3 -5 1 -9 9 -9 8 0 12 4 9 9 -3 4 -7 8 -9 8 -2 0 -6 -4
-9 -8z"/>
<path d="M2590 936 c0 -2 7 -6 15 -10 8 -3 15 -1 15 4 0 6 -7 10 -15 10 -8 0
-15 -2 -15 -4z"/>
<path d="M2316 917 c3 -10 9 -15 12 -12 3 3 0 11 -7 18 -10 9 -11 8 -5 -6z"/>
<path d="M464 900 c0 -13 4 -16 10 -10 7 7 7 13 0 20 -6 6 -10 3 -10 -10z"/>
<path d="M1835 911 c-3 -5 -2 -12 3 -15 5 -3 9 1 9 9 0 17 -3 19 -12 6z"/>
<path d="M1915 911 c6 -11 4 -13 -8 -8 -23 9 -21 0 2 -13 15 -7 19 -7 17 5 -1
8 -6 18 -11 22 -4 5 -5 2 0 -6z"/>
<path d="M2295 911 c6 -10 4 -13 -7 -9 -8 4 -15 1 -15 -6 0 -6 8 -12 17 -12
18 0 21 19 5 33 -4 5 -5 2 0 -6z"/>
<path d="M2363 905 c-3 -9 -3 -18 -1 -21 3 -3 8 4 11 16 6 23 -1 27 -10 5z"/>
<path d="M2473 905 c0 -8 4 -12 9 -9 4 3 8 9 8 15 0 5 -4 9 -8 9 -5 0 -9 -7
-9 -15z"/>
<path d="M531 901 c-7 -5 -12 -14 -10 -20 2 -6 10 -2 17 9 14 22 13 23 -7 11z"/>
<path d="M1981 894 c0 -11 3 -14 6 -6 3 7 2 16 -1 19 -3 4 -6 -2 -5 -13z"/>
<path d="M2116 897 c3 -8 11 -14 19 -14 20 0 19 4 -5 17 -15 8 -18 8 -14 -3z"/>
<path d="M2230 901 c0 -6 4 -13 10 -16 6 -3 7 1 4 9 -7 18 -14 21 -14 7z"/>
<path d="M2056 888 c3 -5 10 -6 15 -3 13 9 11 12 -6 12 -8 0 -12 -4 -9 -9z"/>
<path d="M430 870 c-13 -8 -12 -10 3 -10 9 0 17 5 17 10 0 12 -1 12 -20 0z"/>
</g>
</svg>
